<?xml version="1.0" standalone="no"?>
<!DOCTYPE svg PUBLIC "-//W3C//DTD SVG 20010904//EN"
 "http://www.w3.org/TR/2001/REC-SVG-20010904/DTD/svg10.dtd">
<svg version="1.0" xmlns="http://www.w3.org/2000/svg"
 width="800.000000pt" height="800.000000pt" viewBox="0 0 800.000000 800.000000"
 preserveAspectRatio="xMidYMid meet">

<g transform="translate(0.000000,800.000000) scale(0.100000,-0.100000)"
fill="#000000" stroke="none">
<path d="M0 4000 l0 -4000 4000 0 4000 0 0 4000 0 4000 -4000 0 -4000 0 0
-4000z m4214 3150 c987 -71 1882 -547 2469 -1311 63 -82 100 -114 119 -102 13
7 85 -35 101 -61 19 -28 22 -75 8 -122 -8 -28 -2 -45 45 -136 168 -328 280
-667 336 -1013 20 -125 25 -143 50 -167 35 -32 38 -86 8 -113 -17 -15 -20 -31
-20 -92 0 -66 -2 -74 -17 -71 -14 2 -20 19 -27 76 -5 45 -13 72 -21 72 -21 0
-48 39 -48 70 0 17 9 40 21 53 26 28 27 47 6 175 -25 155 -64 311 -77 308 -7
-1 -9 -1 -4 1 14 9 7 45 -34 170 -61 186 -138 362 -237 540 -40 73 -48 82 -68
77 -34 -9 -90 14 -118 47 -34 40 -41 85 -22 138 15 44 14 45 -16 89 -51 75
-177 222 -283 331 -255 264 -544 474 -887 646 -454 227 -891 339 -1424 365
-178 8 -476 -1 -599 -19 -123 -18 -163 -10 -49 10 33 5 86 15 119 20 156 28
439 35 669 19z m-864 -59 c0 -5 -24 -12 -52 -15 -29 -4 -64 -9 -78 -12 l-25
-4 25 11 c14 7 48 15 75 19 28 4 51 8 53 9 1 0 2 -3 2 -8z m-375 -87 c-214
-65 -447 -162 -649 -271 -192 -103 -214 -118 -230 -157 -17 -42 -51 -66 -92
-66 -54 0 -270 -166 -454 -350 -189 -189 -418 -478 -404 -509 27 -62 -2 -121
-59 -121 -30 0 -36 -6 -79 -83 -119 -211 -213 -428 -272 -633 -43 -151 -84
-341 -92 -435 -7 -65 -5 -73 14 -88 44 -34 35 -109 -17 -135 -29 -15 -29 -17
-36 -123 -9 -123 8 -447 31 -598 45 -305 158 -654 306 -945 60 -120 64 -125
92 -122 15 2 44 -4 64 -14 l36 -17 -40 -15 c-21 -8 -41 -16 -43 -18 -13 -10
154 -256 172 -253 7 1 20 -1 30 -4 9 -4 23 -9 31 -11 27 -9 50 -57 48 -101 -1
-36 5 -49 54 -111 113 -141 274 -296 512 -492 49 -41 55 -43 85 -33 43 15 81
-11 85 -60 3 -31 11 -39 80 -81 306 -185 661 -333 962 -402 136 -31 431 -76
570 -87 264 -21 621 -1 890 51 52 10 98 16 103 13 4 -2 7 -12 7 -23 0 -14 -15
-21 -67 -34 -191 -45 -484 -76 -728 -76 -358 1 -624 44 -985 161 -225 73 -517
206 -735 335 -106 63 -125 71 -158 67 -49 -7 -91 28 -83 68 4 23 -8 36 -122
126 -139 111 -378 336 -457 431 -41 50 -55 60 -80 60 -54 -1 -60 2 -98 37 -34
33 -46 68 -37 110 11 50 4 66 -69 180 -120 188 -272 508 -339 715 -64 197
-121 460 -143 660 -7 65 -13 222 -12 363 1 203 -2 247 -13 247 -20 0 -45 56
-38 84 3 13 21 38 39 54 21 20 35 44 39 69 66 368 178 705 336 1008 80 154 87
172 74 190 -22 30 -17 64 16 97 24 23 37 29 58 25 24 -5 32 2 72 56 182 250
437 513 713 736 56 45 75 67 68 74 -6 6 -11 26 -11 45 0 49 52 95 99 88 19 -3
43 -14 55 -25 l21 -20 110 60 c194 107 381 189 579 254 218 71 223 73 251 73
11 0 -16 -11 -60 -24z m1609 -63 c7 -11 -66 -71 -87 -71 -43 0 -48 11 -20 45
22 27 36 34 65 34 20 1 39 -3 42 -8z m-664 -76 c52 -27 67 -92 31 -136 -18
-23 -18 -23 4 -41 30 -23 39 -62 24 -105 -16 -49 -58 -64 -191 -71 l-108 -5 0
69 c0 38 -3 119 -7 181 l-6 112 49 4 c118 9 176 7 204 -8z m367 -10 c50 -21
69 -61 65 -138 -2 -27 -35 -70 -61 -78 -10 -4 -5 -21 18 -67 17 -34 31 -64 31
-67 0 -3 -18 -5 -41 -5 -40 0 -40 0 -70 66 -29 65 -30 65 -67 62 l-37 -3 -5
-55 -5 -55 -35 3 c-19 2 -36 5 -36 5 -3 4 18 333 22 346 4 11 22 12 97 6 50
-4 106 -13 124 -20z m-703 -150 c9 -77 19 -154 21 -171 5 -30 3 -32 -31 -38
-20 -4 -37 -6 -39 -4 -3 3 -30 238 -37 318 -3 32 0 35 27 41 17 3 33 3 37 0 3
-3 14 -69 22 -146z m931 125 c4 -6 -3 -77 -15 -158 -30 -209 -25 -195 -62
-188 -17 3 -33 8 -36 10 -2 2 7 81 19 175 l23 171 32 0 c18 0 36 -5 39 -10z
m-1266 -77 c5 -27 17 -90 27 -140 9 -51 19 -93 23 -93 3 0 42 7 85 15 44 8 81
14 82 12 2 -2 6 -17 10 -34 l6 -30 -121 -23 c-67 -13 -123 -21 -126 -19 -4 4
-63 287 -68 328 -2 13 27 27 60 30 6 1 16 -20 22 -46z m1589 10 c19 -5 23 -11
19 -32 -8 -45 -74 -299 -81 -309 -8 -13 -57 -2 -63 15 -3 7 7 62 21 121 56
223 54 219 104 205z m-1790 -53 c88 -54 118 -206 55 -280 -33 -40 -93 -70
-151 -76 -100 -11 -181 69 -189 189 -3 41 1 61 19 91 48 83 189 123 266 76z
m1988 -4 c151 -51 194 -90 194 -176 0 -59 -39 -141 -80 -170 -49 -35 -105 -37
-196 -6 -44 14 -85 30 -93 35 -11 7 -4 39 39 167 51 155 58 174 64 174 1 0 34
-11 72 -24z m-2362 -112 c15 -40 7 -54 -30 -54 -44 0 -99 -25 -119 -54 -33
-46 -7 -134 50 -172 35 -23 88 -13 138 27 l40 32 19 -22 c25 -32 24 -37 -23
-70 -116 -84 -243 -61 -299 54 -32 67 -25 153 16 196 61 65 192 104 208 63z
m2803 -70 c62 -31 113 -60 113 -64 0 -4 -8 -18 -18 -30 l-18 -22 -65 36 c-36
20 -73 36 -82 36 -9 0 -23 -13 -32 -30 l-15 -30 74 -37 75 -37 -15 -28 c-8
-15 -16 -28 -17 -28 -2 0 -31 14 -65 30 -34 17 -67 30 -72 30 -5 0 -16 -13
-25 -29 l-15 -30 80 -42 c44 -24 80 -48 80 -53 0 -6 -7 -20 -15 -30 -14 -19
-19 -17 -129 38 l-114 57 76 159 c42 88 78 160 81 160 2 0 56 -25 118 -56z
m-1147 -190 c511 -73 1047 -334 1445 -706 333 -310 567 -714 670 -1158 10 -41
23 -80 29 -86 6 -6 34 -21 63 -32 28 -12 107 -49 174 -82 68 -33 125 -60 128
-60 16 0 -51 344 -95 490 -97 319 -226 578 -417 833 -35 45 -58 67 -72 67 -30
0 -45 19 -45 55 0 20 -8 39 -21 51 -11 10 -25 27 -31 38 -11 21 -3 18 48 -21
17 -13 42 -23 56 -23 29 0 42 -13 52 -51 3 -15 44 -80 90 -145 148 -207 222
-343 302 -554 85 -225 141 -438 172 -650 l17 -115 55 -27 c30 -15 59 -27 63
-27 25 -2 -48 392 -117 629 -101 352 -216 577 -449 884 -173 226 -433 486
-486 486 -32 0 -45 8 -60 37 -16 32 -14 54 11 80 43 46 123 14 116 -46 -2 -24
19 -48 156 -182 166 -161 272 -283 398 -459 192 -267 305 -527 403 -927 25
-104 48 -193 50 -200 3 -9 11 -9 34 0 22 8 36 8 57 -2 l27 -12 -21 -15 c-15
-10 -33 -13 -58 -8 -32 6 -36 5 -31 -12 3 -11 11 -77 18 -149 9 -107 15 -134
32 -153 l21 -23 -45 20 c-26 12 -104 49 -175 84 -211 105 -333 159 -649 290
-349 144 -386 157 -461 162 -30 2 -62 9 -70 16 -9 7 -45 55 -81 107 -129 185
-244 282 -391 330 -63 20 -98 25 -192 25 -199 2 -330 -48 -535 -203 -66 -49
-135 -95 -154 -101 -26 -9 -55 -9 -120 1 l-85 13 60 21 c82 30 170 79 289 163
161 113 257 153 411 174 264 35 515 -50 672 -229 33 -37 91 -107 130 -155 116
-146 108 -141 511 -298 69 -27 127 -46 130 -43 8 8 -36 166 -76 274 -86 231
-231 483 -378 660 -88 105 -294 304 -393 379 -229 173 -480 305 -741 391 -270
88 -449 119 -746 127 -310 8 -537 -20 -840 -103 -178 -49 -496 -182 -635 -264
-21 -13 -25 -14 -11 -3 13 9 51 39 85 66 33 27 102 72 153 100 50 28 91 53 89
54 -1 1 -26 -7 -56 -18 -29 -11 -62 -18 -74 -16 -26 4 141 86 287 141 115 43
321 96 369 95 l33 -1 -38 -17 c-56 -26 -17 -33 59 -11 213 62 617 82 884 44z
m-2297 -161 c72 -49 145 -94 161 -101 16 -7 46 -27 66 -46 42 -38 93 -54 114
-37 19 16 50 21 65 11 10 -5 10 -16 3 -43 l-10 -35 67 28 c36 16 68 26 70 24
3 -2 -15 -25 -40 -50 -75 -76 -36 -70 154 26 158 79 358 160 432 175 17 4 -37
-21 -120 -55 -82 -34 -221 -98 -307 -143 -153 -79 -157 -82 -140 -101 16 -18
16 -19 -8 -6 -76 40 -516 327 -579 378 l-43 35 7 -34 c8 -37 94 -220 122 -259
10 -13 13 -21 8 -18 -6 4 -42 -25 -80 -63 -39 -38 -74 -69 -80 -69 -5 0 23 33
63 73 39 40 72 78 72 84 0 7 -16 24 -35 39 -25 19 -35 34 -35 54 0 16 -12 51
-26 78 -21 40 -30 49 -46 44 -11 -3 -83 -67 -160 -143 -133 -132 -140 -139
-133 -169 8 -39 -16 -70 -54 -70 -59 0 -337 -411 -432 -638 -97 -233 -215
-647 -203 -711 4 -18 2 -37 -5 -45 -19 -23 -42 -213 -48 -406 -10 -350 52
-720 179 -1060 61 -163 84 -210 103 -210 20 0 38 -37 32 -68 -7 -36 50 -142
182 -342 137 -208 315 -428 346 -429 34 -1 65 -30 65 -60 0 -15 9 -36 20 -46
11 -10 17 -22 13 -28 -3 -6 -1 -7 6 -3 15 10 43 -13 34 -27 -3 -5 -1 -7 5 -3
6 3 13 2 16 -3 4 -5 2 -12 -4 -16 -5 -3 -29 12 -53 34 -39 36 -47 39 -83 34
-49 -6 -68 12 -61 59 4 30 -3 41 -68 110 -134 143 -329 412 -418 578 -48 91
-55 100 -75 100 -39 0 -68 60 -41 87 8 8 -4 51 -44 154 -86 224 -121 357 -167
628 -38 225 -43 612 -10 813 14 86 14 85 -18 91 -35 7 -55 44 -39 73 15 28 29
35 59 30 29 -6 31 -1 54 99 15 70 78 288 111 385 71 213 282 610 324 610 10 0
19 4 19 9 0 5 32 53 70 107 54 75 70 104 65 122 -6 23 9 61 29 74 6 4 21 8 33
8 13 0 34 15 52 39 17 22 81 83 141 137 78 70 109 103 104 114 -15 36 -15 48
1 64 30 30 63 18 198 -71z m3815 -85 c20 -20 15 -76 -7 -88 -41 -21 -81 1 -81
45 0 45 58 73 88 43z m-26 -180 c136 -107 241 -211 304 -303 92 -133 117 -175
112 -180 -5 -6 -99 113 -153 194 -36 53 -208 217 -294 280 -105 76 -115 86
-108 106 7 16 9 16 30 -6 13 -13 62 -54 109 -91z m268 -18 c10 -5 21 -24 25
-42 4 -18 9 -40 11 -49 4 -14 -1 -15 -33 -9 -53 9 -83 27 -83 50 0 10 -3 25
-6 33 -4 11 2 17 23 20 15 2 32 5 36 6 5 0 17 -3 27 -9z m-4304 -55 c11 -43 1
-60 -36 -65 -41 -6 -87 -52 -207 -211 -237 -313 -400 -699 -487 -1154 -37
-194 -50 -362 -43 -578 5 -188 5 -190 31 -211 36 -30 43 -69 16 -96 -24 -24
-26 -14 26 -225 48 -192 105 -355 180 -512 47 -100 67 -133 81 -133 28 0 63
-29 63 -52 0 -12 -7 -30 -16 -40 -16 -17 -14 -23 30 -95 88 -147 189 -280 354
-469 39 -46 72 -86 72 -91 0 -4 -7 3 -16 15 -8 12 -21 22 -27 22 -18 0 -123
111 -213 225 -61 77 -230 320 -246 354 -2 3 -16 13 -33 21 -25 13 -30 22 -32
55 -1 24 -21 81 -51 145 -91 192 -170 422 -201 593 -28 148 -33 167 -45 167
-21 0 -49 37 -48 65 0 14 8 35 18 46 16 18 18 39 15 242 -3 283 22 514 80 727
125 457 289 788 553 1119 37 45 74 98 83 116 26 55 87 67 99 20z m82 -47 c21
-21 14 -34 -51 -99 -35 -35 -114 -133 -177 -218 -63 -84 -116 -148 -118 -142
-6 17 67 125 181 271 72 91 97 130 93 145 -4 15 2 26 22 38 33 20 35 20 50 5z
m382 -81 c0 -6 -26 -38 -57 -71 l-58 -59 63 52 c35 28 66 51 70 51 4 0 -19
-25 -50 -56 l-56 -57 -44 16 c-132 47 -213 79 -218 84 -3 3 14 3 38 -1 24 -3
42 -2 42 3 0 12 82 72 89 66 2 -3 -11 -21 -30 -41 -33 -34 -33 -36 -15 -50 31
-22 40 -18 112 45 65 56 69 58 91 44 13 -8 23 -20 23 -26z m3952 -118 c13 -16
37 -47 54 -67 86 -103 237 -356 303 -509 53 -122 134 -384 123 -395 -6 -6 -23
-5 -43 0 -19 6 -26 11 -17 11 9 1 19 5 22 10 7 10 -26 130 -66 241 -73 205
-247 505 -377 653 -46 52 -81 105 -81 122 0 12 59 -36 82 -66z m-4258 -3 c25
-35 69 -89 97 -120 58 -63 57 -74 -12 -96 -71 -24 -204 -195 -309 -398 -23
-45 -45 -81 -47 -78 -8 7 61 147 115 234 28 45 80 120 115 165 81 104 86 114
55 93 -44 -29 -126 -138 -225 -301 -122 -201 -166 -309 -209 -514 -49 -233
-58 -307 -58 -523 -1 -185 -3 -209 -19 -220 -16 -12 -16 -23 -7 -120 15 -155
73 -420 99 -452 11 -14 88 -196 106 -253 18 -56 84 -176 172 -310 71 -110 88
-153 58 -153 -25 0 -170 212 -243 355 -17 33 -39 65 -50 72 -25 15 -93 187
-133 336 -35 135 -66 307 -75 419 -4 46 -13 96 -21 112 -19 37 -9 208 13 227
8 6 14 29 14 53 0 56 34 283 58 384 12 49 16 85 10 88 -16 10 1 77 51 207 49
127 132 291 155 304 7 4 38 47 69 95 31 48 86 129 122 179 l66 92 -20 21 c-26
28 -27 62 -2 100 15 22 17 34 10 48 -20 37 1 16 45 -46z m-334 -74 c0 -5 -22
-40 -48 -78 -158 -225 -278 -480 -341 -724 -19 -70 -32 -105 -42 -105 -19 0
-16 15 43 200 62 196 131 350 231 517 42 70 77 131 77 135 0 4 12 20 27 35 26
27 53 37 53 20z m1699 -101 c123 -74 259 -181 347 -273 104 -109 141 -165 149
-231 10 -80 23 -122 46 -151 l21 -27 -20 -82 c-24 -96 -19 -138 25 -201 77
-109 241 -123 290 -25 11 21 12 17 11 -36 -2 -64 11 -99 56 -151 14 -16 34
-40 45 -54 10 -14 23 -22 27 -17 4 4 -3 18 -15 31 -14 15 -20 30 -16 37 5 7 4
10 -1 6 -19 -11 -32 8 -57 86 -17 48 -24 88 -21 106 11 54 -64 92 -112 56 -10
-8 -34 -15 -51 -15 -33 0 -52 13 -86 60 l-18 25 6 -25 c5 -19 4 -22 -4 -10
-15 22 -13 76 4 109 21 42 90 98 143 115 176 61 376 -79 390 -273 4 -62 -15
-172 -25 -144 -3 7 -18 -14 -34 -47 -45 -90 -121 -153 -220 -185 -332 -105
-667 116 -744 491 -8 41 -18 142 -21 226 -3 84 -10 178 -16 208 -13 72 -69
190 -152 319 -36 57 -66 108 -66 113 0 19 42 5 119 -41z m-1604 -30 c-17 -34
-31 -45 -39 -32 -7 10 31 61 45 61 5 0 3 -13 -6 -29z m3410 -343 c33 -15 42
-51 21 -83 -16 -25 -58 -34 -82 -17 -35 23 -34 80 3 101 23 13 27 13 58 -1z
m-181 -39 c19 -15 26 -30 26 -55 0 -66 -69 -97 -117 -52 -33 31 -30 70 8 102
37 31 49 32 83 5z m358 9 c28 -22 27 -64 -2 -73 -47 -15 -84 50 -42 74 22 13
25 13 44 -1z m-528 -100 c23 -33 20 -75 -9 -103 -38 -39 -102 -27 -124 22 -16
36 -14 51 14 78 33 34 97 35 119 3z m687 6 c17 -21 0 -49 -32 -49 -27 0 -37
28 -19 50 16 19 34 19 51 -1z m-161 -24 c128 -36 233 -187 171 -249 -21 -21
-61 -29 -61 -12 0 5 9 11 20 14 11 3 20 13 20 24 -1 17 -1 17 -15 -1 -8 -11
-15 -15 -15 -9 0 7 5 15 10 18 56 34 -110 166 -208 165 -68 -1 -152 -69 -152
-124 0 -17 -6 -18 -77 -10 -43 4 -127 9 -188 9 -60 1 -114 3 -120 5 -5 1 37 8
95 15 98 13 114 18 245 84 77 39 147 72 155 75 27 8 84 6 120 -4z m-3924 -84
c-18 -42 -42 -50 -32 -10 4 14 15 38 24 52 23 35 29 7 8 -42z m5144 24 c0 -13
5 -17 15 -14 17 7 20 -13 5 -36 -7 -12 -12 -12 -29 4 -20 18 -28 56 -15 69 11
10 24 -3 24 -23z m-955 -60 c0 -33 -40 -41 -50 -11 -9 28 2 43 28 39 16 -2 22
-10 22 -28z m-344 -42 c14 -26 -6 -50 -40 -46 -32 4 -42 45 -16 64 21 15 42 8
56 -18z m2049 -8 c0 -5 -4 -10 -10 -10 -5 0 -10 5 -10 10 0 6 5 10 10 10 6 0
10 -4 10 -10z m-2380 -92 c55 -28 102 -89 131 -169 31 -85 77 -117 130 -89 13
8 19 22 19 48 1 35 2 36 15 18 22 -29 19 -44 -14 -77 -25 -24 -27 -29 -11 -29
22 0 60 45 60 71 0 29 -33 56 -66 55 -22 -1 -29 -6 -29 -21 0 -30 -29 -25 -33
6 -8 66 103 69 138 4 28 -52 -25 -130 -94 -140 -81 -13 -146 38 -180 140 -20
59 -36 85 -73 120 -44 41 -98 65 -150 66 -71 1 -24 17 52 18 44 1 73 -5 105
-21z m1664 -98 c4 -24 3 -28 -2 -15 -14 31 -24 83 -13 65 5 -8 11 -31 15 -50z
m-2469 -79 c-3 -6 -16 -11 -28 -11 -21 1 -21 1 3 15 27 14 36 13 25 -4z
m-2938 -96 c9 -20 8 -25 -3 -25 -15 0 -37 34 -27 44 11 11 18 7 30 -19z m683
10 c31 -18 64 -19 90 -3 17 11 23 9 42 -9 18 -18 19 -24 8 -37 -15 -19 -39
-21 -45 -3 -7 18 -154 15 -165 -3 -5 -8 -6 -18 -4 -22 3 -4 -2 -8 -10 -8 -21
0 -30 19 -12 26 8 3 22 21 31 40 18 37 28 40 65 19z m3750 -2 c0 -11 -47 -40
-210 -128 -80 -43 -160 -92 -178 -109 -19 -17 -58 -68 -88 -113 -30 -45 -85
-113 -122 -153 -43 -45 -65 -75 -60 -83 5 -8 8 -6 8 6 0 10 5 15 10 12 6 -3
10 -1 10 4 0 6 6 11 13 11 15 0 66 57 159 178 49 64 97 113 151 153 69 52 177
116 177 106 0 -2 -39 -28 -86 -57 -112 -68 -151 -104 -233 -215 -92 -123 -161
-196 -259 -275 -112 -90 -128 -99 -145 -76 -19 26 -49 13 -82 -35 -34 -48 -22
-74 15 -34 45 48 41 24 -7 -36 -163 -208 -347 -365 -540 -463 -89 -45 -72 -29
32 31 55 31 138 88 185 126 110 91 105 86 98 92 -3 4 -17 -5 -29 -19 -13 -13
-30 -26 -38 -28 -8 -2 -51 -27 -95 -56 -144 -95 -265 -145 -405 -167 -32 -5
-42 -4 -39 5 2 7 23 14 47 16 66 6 214 59 292 104 142 84 284 215 422 392 56
72 85 99 165 151 121 79 234 185 312 290 112 151 109 149 292 250 95 53 182
103 193 111 22 17 35 20 35 9z m-90 -97 c0 -2 -7 -7 -16 -10 -8 -3 -12 -2 -9
4 6 10 25 14 25 6z m952 -124 c2 -41 7 -62 16 -62 8 0 12 21 13 68 l1 67 12
-60 c7 -33 18 -75 24 -94 7 -19 12 -75 12 -125 0 -77 -3 -94 -18 -107 -15 -13
-20 -36 -25 -120 -7 -117 -36 -277 -73 -407 -14 -48 -27 -105 -29 -127 -7 -83
-134 -360 -198 -429 -20 -23 -54 -68 -74 -101 -50 -82 -132 -192 -223 -300
-353 -422 -863 -721 -1420 -834 -205 -42 -353 -54 -570 -48 -113 3 -215 9
-227 12 -21 7 -21 9 -9 32 l13 25 259 2 c288 2 383 13 614 71 384 97 803 315
1105 574 88 76 256 257 302 327 l26 39 -25 -22 c-13 -13 -27 -23 -31 -23 -18
0 -2 28 50 83 60 65 113 135 113 148 0 4 -14 3 -31 -3 -46 -16 -61 4 -27 38
l26 27 11 -22 c7 -11 15 -21 20 -21 13 0 109 180 177 336 113 256 153 444 162
764 3 118 5 253 4 300 -2 99 15 92 20 -8z m-5288 19 c9 -15 -23 -36 -36 -23
-5 5 -7 15 -4 21 9 13 33 14 40 2z m5744 -73 c15 -15 16 -251 2 -423 -24 -286
-101 -594 -215 -857 l-44 -103 29 -27 c44 -41 69 -25 114 71 84 182 156 406
200 626 39 197 46 263 53 473 3 105 9 192 13 192 16 0 30 -29 36 -71 7 -54
-12 -347 -32 -489 -32 -223 -99 -462 -205 -727 -41 -104 -48 -130 -41 -156 14
-51 -12 -97 -54 -97 -17 0 -35 -21 -85 -102 -126 -207 -266 -386 -413 -528
-25 -24 -46 -51 -46 -59 0 -21 -30 -51 -52 -51 -10 0 -29 11 -41 24 -12 13
-66 50 -120 84 -118 72 -151 74 -215 13 -40 -38 -188 -151 -275 -210 -27 -18
-53 -43 -59 -56 -5 -12 -20 -27 -32 -33 -11 -5 -49 -24 -84 -42 -34 -17 -67
-30 -72 -28 -14 5 137 123 214 168 82 48 143 92 251 179 44 35 82 66 84 67 2
2 -4 14 -12 28 -16 24 -15 25 18 55 19 16 52 35 73 41 48 12 146 121 322 358
158 214 150 198 122 217 -12 9 -22 25 -22 37 0 16 5 19 23 14 24 -6 35 7 91
107 15 27 30 46 33 43 3 -3 -7 -37 -22 -76 -16 -38 -26 -73 -23 -75 9 -10 66
88 107 181 74 172 143 385 172 532 10 55 10 65 -5 81 -36 40 -11 85 45 79 48
-5 58 -41 21 -76 -22 -21 -31 -43 -40 -97 -21 -114 -69 -292 -111 -410 -47
-130 -135 -331 -155 -354 -8 -9 -47 -65 -87 -126 -163 -249 -380 -508 -409
-490 -8 5 -1 19 23 44 134 142 433 558 414 577 -2 3 -48 -59 -100 -138 -144
-216 -308 -401 -413 -464 -26 -16 -7 -47 32 -54 16 -3 48 -15 72 -28 23 -12
42 -18 42 -12 0 5 33 47 73 91 183 206 309 373 387 512 30 54 32 61 21 98 -11
37 -10 40 20 73 17 19 37 32 43 30 19 -7 30 10 90 148 67 153 105 270 146 442
49 206 61 305 67 554 3 127 9 232 12 232 4 0 12 -5 19 -12z m-3493 -83 c137
-35 297 -138 379 -245 46 -61 92 -153 111 -225 17 -67 21 -260 5 -250 -5 3
-10 25 -11 48 -1 34 -2 37 -8 17 -7 -26 -9 -27 -61 -29 -41 -1 -38 -23 5 -52
32 -22 35 -27 30 -58 -10 -51 -24 -83 -35 -76 -6 4 -7 -1 -4 -12 5 -16 4 -16
-10 1 -9 11 -16 25 -16 32 0 6 -7 17 -15 24 -12 10 -15 9 -15 -5 0 -10 -3 -16
-6 -12 -3 3 -29 -20 -57 -51 -68 -77 -114 -109 -130 -93 -9 9 -8 21 4 56 20
55 9 80 -20 46 -12 -13 -21 -18 -21 -11 0 22 -30 -10 -31 -34 0 -11 -3 -15 -6
-8 -2 6 -9 10 -13 7 -5 -3 -20 6 -34 20 -15 15 -26 20 -26 13 0 -7 -14 8 -31
35 -17 26 -37 47 -45 47 -7 0 -16 12 -20 28 -11 52 -12 47 -7 -30 l6 -77 -36
9 c-37 8 -37 8 -48 -33 -14 -53 -76 -117 -115 -118 -51 -2 -68 2 -106 27 -36
23 -78 87 -78 119 0 10 -10 15 -30 15 -22 0 -28 -4 -24 -15 4 -8 2 -16 -2 -16
-47 -7 -54 -5 -54 13 0 24 -56 82 -70 73 -17 -10 -60 43 -60 73 0 15 -7 36
-15 46 -15 20 -15 20 -15 0 0 -10 7 -46 14 -79 18 -74 14 -83 -8 -18 -22 68
-39 227 -32 296 22 214 209 427 436 494 91 27 236 30 325 8z m-2257 -48 c8
-10 6 -16 -10 -26 -24 -15 -44 -1 -35 23 8 19 31 21 45 3z m622 -58 c0 -4 -9
-17 -19 -30 l-20 -24 -25 25 -26 25 21 35 21 34 24 -29 c13 -17 24 -33 24 -36z
m5570 -83 c0 -101 3 -125 15 -130 8 -3 22 -21 31 -39 14 -30 15 -38 3 -62 -11
-23 -34 -43 -57 -51 -1 0 -14 -66 -28 -145 -40 -229 -112 -497 -171 -642 -14
-34 -25 -74 -25 -89 0 -16 -3 -28 -9 -28 -5 0 -30 -42 -55 -92 -61 -123 -177
-320 -258 -442 -55 -83 -64 -101 -55 -118 23 -43 -44 -128 -101 -128 -20 0
-37 -11 -60 -37 -141 -165 -385 -388 -583 -533 -99 -73 -115 -89 -115 -112 1
-49 -54 -88 -117 -82 -16 1 -40 3 -52 3 -25 1 -31 27 -14 59 5 9 15 32 22 50
15 41 59 66 100 57 24 -6 40 1 94 40 189 134 456 376 589 533 54 63 60 74 61
117 0 40 5 51 30 71 17 13 42 24 57 24 32 0 76 58 190 247 222 369 365 757
423 1145 9 57 12 104 7 106 -25 8 -45 32 -48 57 -4 35 20 82 45 90 27 8 32 26
38 157 6 110 7 116 25 107 16 -9 18 -23 18 -133z m-6067 127 c-13 -2 -33 -2
-45 0 -13 2 -3 4 22 4 25 0 35 -2 23 -4z m5380 0 c-7 -2 -21 -2 -30 0 -10 3
-4 5 12 5 17 0 24 -2 18 -5z m105 0 c-15 -2 -42 -2 -60 0 -18 2 -6 4 27 4 33
0 48 -2 33 -4z m-5228 -64 c0 -18 -2 -19 -15 -9 -8 7 -15 16 -15 21 0 5 7 9
15 9 9 0 15 -9 15 -21z m-385 -130 c10 -15 -1 -23 -20 -15 -9 3 -13 10 -10 16
8 13 22 13 30 -1z m5633 -1 c8 -8 9 -15 1 -25 -15 -17 -44 -17 -58 1 -10 11
-8 17 6 25 24 14 36 14 51 -1z m-198 -233 c-7 -47 -14 -84 -17 -81 -3 3 0 43
8 91 7 47 14 83 17 81 2 -3 -1 -44 -8 -91z m-5271 -55 c-1 -32 -1 -33 -8 -10
-5 14 -11 53 -14 85 l-6 60 14 -50 c8 -27 14 -66 14 -85z m-98 89 c9 -17 7
-25 -9 -42 -20 -22 -20 -23 -1 -110 59 -276 186 -604 322 -833 62 -103 218
-315 296 -401 34 -37 61 -74 61 -82 0 -11 -5 -9 -21 5 -53 47 -227 269 -351
449 -82 117 -179 328 -254 550 -35 102 -94 336 -94 373 0 11 -11 27 -25 36
-46 30 -26 76 32 76 23 0 36 -6 44 -21z m3439 7 c0 -3 -4 -8 -10 -11 -5 -3
-10 -1 -10 4 0 6 5 11 10 11 6 0 10 -2 10 -4z m1996 -102 c7 -28 -9 -46 -33
-37 -16 6 -17 18 -3 44 15 26 28 24 36 -7z m-5300 -148 c8 -33 -3 -51 -22 -35
-22 18 -17 59 7 59 5 0 11 -11 15 -24z m5204 0 c0 -14 -5 -28 -11 -32 -17 -10
-32 12 -24 35 9 29 35 27 35 -3z m-3950 -127 c0 -5 -4 -8 -8 -5 -15 9 -82 -68
-73 -83 5 -7 13 -11 19 -7 6 3 12 1 14 -5 5 -15 58 29 59 49 0 12 2 13 6 3 3
-8 -23 -41 -63 -82 -37 -38 -65 -71 -61 -75 3 -3 34 14 69 38 86 61 101 67 50
22 -31 -28 -42 -44 -37 -56 11 -27 44 -32 68 -11 20 17 20 17 -1 -14 -24 -35
-100 -103 -114 -103 -39 0 -111 72 -124 124 -11 46 4 71 87 144 78 68 109 86
109 61z m1405 -170 c-22 -10 -47 -18 -55 -18 -8 0 5 8 30 19 59 24 76 24 25
-1z m-1320 2 c3 -5 1 -12 -5 -16 -5 -3 -10 1 -10 9 0 18 6 21 15 7z m-1 -101
c-20 -28 -35 -52 -33 -54 21 -18 47 -24 59 -13 7 7 1 -6 -14 -28 -43 -65 -30
-63 41 5 57 56 61 59 30 19 -42 -53 -44 -59 -18 -81 17 -15 20 -14 41 6 28 26
18 7 -32 -61 -43 -58 -68 -66 -125 -38 -64 32 -92 89 -67 140 14 30 134 155
148 155 3 0 -10 -23 -30 -50z m1093 -232 c21 -82 25 -112 18 -134 -13 -35 -73
-66 -139 -72 -68 -5 -85 13 -96 105 -5 37 -7 70 -4 72 2 2 4 -1 4 -7 0 -32 69
4 70 37 1 9 14 -11 31 -44 l29 -60 -6 54 c-4 45 -3 53 9 43 10 -9 19 -8 35 4
23 16 24 38 5 109 -4 14 -2 17 5 10 6 -5 23 -58 39 -117z m2169 87 c32 -22 34
-25 14 -25 -12 0 -35 8 -51 17 -23 14 -33 15 -48 6 -21 -13 -131 -6 -131 8 0
12 74 11 86 -1 7 -7 17 -5 30 5 28 21 58 18 100 -10z m-3091 -15 c-21 -42 -20
-75 5 -77 11 -1 22 6 25 18 4 11 9 18 12 15 3 -3 -2 -25 -10 -50 -9 -26 -14
-46 -12 -46 3 0 20 24 40 52 36 55 46 58 20 8 -29 -57 15 -84 54 -32 19 25 18
21 -5 -51 -29 -87 -48 -103 -111 -91 -46 9 -113 72 -113 107 0 14 23 59 51
101 52 78 71 98 44 46z m2675 -10 c0 -5 -13 -10 -30 -10 -16 0 -30 5 -30 10 0
6 14 10 30 10 17 0 30 -4 30 -10z m-495 -40 c-3 -5 -19 -10 -36 -10 -16 0 -29
5 -29 10 0 6 16 10 36 10 21 0 33 -4 29 -10z m733 -19 c3 -8 -1 -12 -9 -9 -7
2 -15 10 -17 17 -3 8 1 12 9 9 7 -2 15 -10 17 -17z m1242 -1 c0 -12 -8 -12
-35 0 -18 8 -17 9 8 9 15 1 27 -3 27 -9z m-3965 -59 c-7 -23 18 -45 44 -36 11
3 24 18 30 33 9 21 10 13 5 -40 -6 -76 10 -95 21 -26 7 42 8 43 23 20 20 -30
48 -28 67 6 15 26 16 24 11 -50 -3 -47 -11 -86 -21 -101 -17 -26 -28 -27 -132
-11 -39 6 -93 49 -93 74 0 23 39 150 46 150 3 0 3 -8 -1 -19z m-2065 -15 c0
-14 -47 -42 -55 -34 -3 3 1 13 10 21 8 9 15 20 15 26 0 6 7 8 15 5 8 -4 15
-12 15 -18z m2187 2 c-3 -8 -6 -5 -6 6 -1 11 2 17 5 13 3 -3 4 -12 1 -19z
m362 -110 c1 -51 -2 -59 -25 -75 -34 -22 -135 -29 -174 -13 -44 18 -53 42 -45
119 7 74 18 103 28 77 9 -22 63 -21 76 1 7 13 11 4 16 -40 9 -71 25 -74 26 -4
0 28 3 46 6 40 8 -20 52 -15 65 7 12 19 13 18 20 -17 4 -21 7 -64 7 -95z
m-1890 -15 c33 -65 167 -246 220 -298 28 -27 51 -56 51 -64 0 -29 -139 125
-216 239 -52 76 -96 160 -85 160 6 0 19 -17 30 -37z m1538 -89 c-3 -3 -12 -4
-19 -1 -8 3 -5 6 6 6 11 1 17 -2 13 -5z m-2207 -79 c7 -8 9 -15 6 -15 -4 0
-14 7 -22 15 -9 8 -11 15 -6 15 5 0 15 -7 22 -15z m1120 8 c0 -3 -14 -31 -31
-61 -50 -88 -97 -215 -108 -294 -6 -40 -13 -84 -15 -98 -2 -14 -4 -2 -5 26 -2
69 33 203 80 303 21 46 39 91 39 101 0 9 3 20 7 23 8 9 33 9 33 0z m3520 -54
c0 -16 -16 -10 -39 15 -14 15 -20 30 -15 37 5 9 14 5 31 -15 12 -15 23 -31 23
-37z m-107 34 c-13 -2 -35 -2 -50 0 -16 2 -5 4 22 4 28 0 40 -2 28 -4z m-123
-287 c0 -7 -214 -143 -290 -184 -338 -181 -755 -282 -1176 -282 -145 0 -224 8
-224 22 0 6 20 7 52 3 121 -17 368 -8 540 19 357 57 657 166 983 360 118 70
115 68 115 62z m-3147 -200 c-5 -108 -3 -142 11 -181 16 -48 14 -73 -5 -45
-23 37 -30 100 -26 224 6 149 4 136 16 136 6 0 7 -55 4 -134z m3705 3 c5 -26
-218 -199 -413 -321 -341 -214 -547 -303 -905 -393 -336 -85 -555 -109 -849
-94 -482 24 -926 155 -1324 390 -115 68 -337 225 -351 248 -16 25 42 -3 107
-53 158 -120 441 -276 642 -353 463 -179 988 -243 1425 -174 422 67 708 160
1032 337 227 123 485 301 578 398 35 37 53 41 58 15z m-3386 -327 c8 -24 21
-48 29 -53 11 -7 11 -9 -4 -9 -11 0 -24 15 -37 44 -10 24 -29 51 -41 60 l-23
16 22 0 c21 0 22 3 24 113 l2 112 6 -120 c4 -66 14 -139 22 -163z m2963 268
c-29 -47 -429 -261 -578 -310 -38 -12 -71 -28 -74 -36 -7 -18 -29 -18 -36 0
-6 16 11 36 32 36 50 0 452 189 591 278 70 45 74 47 65 32z m575 -55 c0 -8
-222 -177 -318 -243 -302 -208 -607 -357 -928 -455 -178 -54 -197 -57 -202
-36 -2 12 23 23 110 48 266 75 588 218 823 365 151 95 330 225 406 295 61 55
65 58 86 44 13 -9 23 -17 23 -18z m-3232 -74 c1 -82 15 -140 48 -200 27 -49
28 -51 14 -51 -17 0 -58 83 -75 152 -15 62 -15 93 1 151 9 30 12 19 12 -52z
m292 -22 c0 -11 -4 -18 -10 -14 -5 3 -7 12 -3 20 7 21 13 19 13 -6z m385 -21
c7 -7 -1 -9 -25 -4 -19 3 -39 11 -45 17 -7 8 0 9 25 4 19 -4 40 -12 45 -17z
m84 -93 c15 -16 13 -16 -29 -10 -75 11 -150 26 -150 31 0 2 37 2 82 0 58 -4
86 -10 97 -21z m1609 3 c-3 -7 -13 -15 -24 -17 -16 -3 -17 -1 -5 13 16 19 34
21 29 4z m-2517 -49 c151 -75 405 -157 669 -215 63 -13 122 -27 131 -29 9 -3
26 4 39 15 42 37 100 19 100 -30 0 -58 -83 -80 -107 -28 -9 20 -25 26 -109 40
-55 9 -137 29 -184 43 -47 14 -124 34 -172 45 -83 18 -289 96 -392 148 -42 21
-53 22 -70 12 -21 -13 -21 -13 -2 9 24 27 25 27 97 -10z m519 -41 c39 -59 39
-61 8 -28 -18 19 -45 47 -60 63 -25 24 -26 27 -9 27 13 0 34 -22 61 -62z
m-950 -53 c346 -215 633 -329 1033 -411 153 -31 426 -64 534 -64 92 0 113 -5
113 -28 0 -13 -19 -14 -157 -9 -416 15 -837 123 -1218 311 -192 95 -430 240
-419 257 3 5 -1 6 -9 4 -7 -3 -21 3 -31 14 -34 37 9 17 154 -74z m2868 61 c4
-36 -10 -50 -41 -42 -28 7 -40 30 -31 58 4 15 13 18 37 16 27 -3 33 -8 35 -32z
m-2109 -6 c22 -6 43 -15 46 -20 9 -14 -6 -12 -56 5 -24 9 -52 14 -62 11 -15
-4 -16 -2 -6 10 7 8 18 13 25 10 7 -3 31 -10 53 -16z m1651 -29 c-27 -15 -172
-50 -295 -71 -77 -14 -183 -23 -295 -26 -96 -2 -194 -6 -217 -8 -24 -2 -40 0
-37 5 3 5 53 9 112 9 180 1 495 40 672 84 66 17 80 18 60 7z m241 -21 c10 -6
19 -16 19 -23 0 -8 -3 -8 -8 -2 -4 6 -18 16 -32 22 -14 6 -19 12 -12 12 7 1
22 -4 33 -9z m-1501 -31 c0 -24 -23 -21 -28 4 -2 10 3 17 12 17 10 0 16 -9 16
-21z m1185 -94 c-44 -13 -91 -24 -105 -24 -32 -2 -46 -11 -54 -38 -9 -29 -34
-36 -62 -18 -27 18 -32 56 -9 75 13 10 23 11 53 1 31 -10 52 -9 127 7 123 26
146 25 50 -3z m-339 -50 c11 -16 11 -25 1 -45 -16 -32 -53 -37 -80 -12 -20 19
-39 21 -254 24 -137 2 -236 7 -242 13 -7 7 66 9 217 7 212 -3 229 -2 262 17
42 25 78 23 96 -4z m1388 -92 c6 -19 -9 -29 -166 -107 -95 -47 -232 -108 -304
-135 -137 -51 -275 -94 -282 -86 -17 16 30 42 205 110 176 69 491 219 517 245
12 12 21 3 30 -27z m-1199 -119 l38 -25 24 25 c27 30 49 33 81 10 27 -18 30
-69 5 -96 -32 -35 -103 -14 -103 31 0 14 -11 20 -42 25 -46 8 -68 21 -68 42 0
21 23 17 65 -12z m-365 -74 c40 -40 11 -110 -45 -110 -29 0 -75 40 -75 65 0
25 46 65 75 65 14 0 34 -9 45 -20z m765 -105 c32 -31 32 -69 -1 -102 -20 -20
-31 -24 -57 -19 -79 16 -94 101 -23 132 43 19 54 17 81 -11z"/>
<path d="M3750 6770 l0 -40 53 0 c63 0 90 16 85 51 -3 22 -7 24 -70 27 l-68 3
0 -41z"/>
<path d="M3760 6625 l0 -45 59 0 c60 0 91 15 91 45 0 30 -31 45 -91 45 l-59 0
0 -45z"/>
<path d="M4135 6759 c-4 -27 -5 -52 -2 -55 9 -10 77 -16 101 -10 31 8 50 40
42 71 -7 26 -50 45 -102 45 -31 0 -32 -2 -39 -51z"/>
<path d="M2901 6647 c-43 -22 -64 -60 -56 -104 9 -54 39 -101 73 -114 61 -24
142 30 142 95 -1 41 -33 112 -58 125 -27 14 -71 14 -101 -2z"/>
<path d="M5005 6628 c-11 -29 -65 -192 -65 -195 0 -11 74 -33 108 -33 57 0
102 57 102 130 0 47 -11 61 -64 86 -58 27 -75 29 -81 12z"/>
<path d="M4980 6100 c8 -5 20 -10 25 -10 6 0 3 5 -5 10 -8 5 -19 10 -25 10 -5
0 -3 -5 5 -10z"/>
<path d="M5060 6065 c14 -8 30 -14 35 -14 6 0 -1 6 -15 14 -14 8 -29 14 -35
14 -5 0 1 -6 15 -14z"/>
<path d="M5110 6046 c0 -3 46 -31 103 -62 56 -31 142 -84 191 -116 48 -33 85
-55 82 -49 -17 26 -376 244 -376 227z"/>
<path d="M5530 5787 c0 -2 48 -44 108 -94 161 -137 326 -322 430 -483 128
-197 230 -422 302 -664 36 -120 52 -157 65 -145 5 6 -90 294 -120 364 -152
356 -308 590 -551 825 -93 91 -234 209 -234 197z"/>
<path d="M1472 4531 c-7 -29 -12 -60 -11 -69 0 -9 7 10 15 42 8 33 13 64 11
69 -2 6 -8 -14 -15 -42z"/>
<path d="M1452 4420 c0 -14 2 -19 5 -12 2 6 2 18 0 25 -3 6 -5 1 -5 -13z"/>
<path d="M1435 4325 c-4 -36 -5 -68 -3 -71 3 -2 8 25 12 62 4 37 5 69 2 71 -2
3 -7 -25 -11 -62z"/>
<path d="M1423 4190 c0 -30 2 -43 4 -27 2 15 2 39 0 55 -2 15 -4 2 -4 -28z"/>
<path d="M1401 3740 c-1 -69 53 -379 65 -368 2 3 -5 51 -16 108 -11 57 -27
149 -34 204 -10 68 -14 86 -15 56z"/>
<path d="M3260 5375 c0 -2 14 -26 30 -52 37 -58 40 -48 4 13 -23 40 -34 52
-34 39z"/>
<path d="M3811 4564 c0 -11 3 -14 6 -6 3 7 2 16 -1 19 -3 4 -6 -2 -5 -13z"/>
<path d="M4255 4296 c0 -15 5 -22 13 -18 15 5 12 34 -3 39 -5 2 -10 -8 -10
-21z"/>
<path d="M3655 4239 c65 -66 143 -111 232 -134 67 -17 133 -20 133 -4 0 5 -4
7 -10 4 -5 -3 -10 -2 -10 4 0 6 -11 13 -25 17 -14 3 -25 10 -25 16 0 5 -9 6
-20 3 -12 -4 -28 -1 -37 7 -12 9 -15 9 -9 1 4 -8 -6 -6 -26 5 -18 9 -35 20
-36 25 -2 4 -9 4 -14 1 -7 -4 -8 -2 -4 4 3 6 -2 16 -13 21 -14 8 -21 8 -24 -2
-3 -6 -8 3 -12 21 -5 22 -11 29 -19 23 -6 -5 -25 -11 -41 -13 -24 -2 -31 1
-33 18 -3 18 -38 44 -60 44 -3 0 20 -27 53 -61z"/>
<path d="M4325 4240 c-7 -23 -21 -26 -28 -7 -4 8 -6 6 -6 -4 -1 -9 8 -24 18
-33 19 -17 20 -17 36 8 15 23 15 27 2 41 -14 13 -16 13 -22 -5z"/>
<path d="M4039 4111 c11 -7 11 -9 0 -14 -10 -4 -10 -6 2 -6 9 -1 21 5 27 12 8
10 5 13 -16 15 -19 1 -23 -1 -13 -7z"/>
<path d="M4901 4565 c9 -11 31 -45 48 -75 18 -30 29 -44 25 -30 -11 42 -31 74
-60 100 -18 16 -23 18 -13 5z"/>
<path d="M4994 4397 c3 -10 6 -23 6 -28 0 -5 19 -18 43 -29 25 -13 34 -15 23
-5 -11 8 -23 15 -27 15 -4 0 -17 15 -29 33 -12 17 -19 24 -16 14z"/>
<path d="M6440 3788 c0 -56 -34 -286 -60 -406 -11 -52 -19 -96 -17 -99 7 -6
57 218 72 317 23 160 28 230 16 230 -6 0 -11 -19 -11 -42z"/>
<path d="M6453 2398 c-112 -169 -231 -315 -347 -427 -42 -40 -76 -74 -76 -76
0 -1 19 -15 41 -30 37 -24 43 -25 51 -11 5 9 17 16 27 16 53 0 368 390 465
577 38 71 33 97 -19 101 l-40 3 -102 -153z"/>
<path d="M3128 3905 c-164 -45 -312 -196 -334 -340 -6 -39 -5 -41 38 -64 64
-36 319 -190 350 -213 16 -11 32 -17 37 -14 5 3 23 30 39 59 17 28 51 88 76
132 25 44 46 82 46 86 0 7 -161 111 -165 107 -1 -2 -12 -22 -24 -45 l-21 -43
31 -28 32 -29 -28 -50 -27 -51 -102 65 c-55 36 -103 67 -104 68 -2 2 18 36 45
77 28 40 67 103 87 140 21 37 42 70 47 73 5 4 35 -14 66 -38 32 -24 110 -78
173 -120 172 -114 158 -100 138 -135 -26 -44 -23 -87 8 -109 24 -18 25 -20 10
-48 -21 -40 -20 -48 8 -78 15 -16 20 -30 15 -39 -5 -7 -9 -27 -9 -45 0 -24 8
-38 32 -56 l31 -25 -26 -31 c-27 -33 -43 -69 -33 -78 21 -22 142 126 176 216
101 267 -80 587 -371 656 -77 18 -177 18 -241 0z m-124 -161 c31 -30 8 -69
-36 -62 -23 3 -35 34 -24 64 7 19 41 18 60 -2z m634 -242 c-2 -23 -8 -27 -33
-27 -24 0 -31 5 -33 24 -5 32 23 54 50 40 13 -7 18 -19 16 -37z m16 -108 c31
-30 8 -69 -36 -62 -26 3 -37 41 -18 64 16 18 35 18 54 -2z m20 -129 c20 -20 7
-59 -21 -63 -30 -5 -48 23 -35 53 13 28 34 32 56 10z"/>
<path d="M3010 3244 c-83 -70 -78 -171 12 -237 33 -24 98 -26 133 -3 31 21 65
86 65 127 0 112 -128 181 -210 113z m118 -117 c6 -53 -67 -57 -84 -5 -5 16 -1
27 16 40 20 16 25 17 44 5 12 -8 22 -26 24 -40z"/>
<path d="M3808 3175 c-3 -14 -1 -25 3 -25 5 0 9 11 9 25 0 14 -2 25 -4 25 -2
0 -6 -11 -8 -25z"/>
</g>
</svg>
